<svg width="1512" height="839" viewBox="0 0 1512 839" fill="none" xmlns="http://www.w3.org/2000/svg">
<rect x="-83" y="734.125" width="104.875" height="104.875" fill="black" fill-opacity="0.03"/>
<rect x="21.875" y="629.25" width="104.875" height="104.875" fill="black" fill-opacity="0.03"/>
<rect x="-83" y="524.375" width="104.875" height="104.875" fill="black" fill-opacity="0.03"/>
<rect x="-83" y="734.125" width="104.875" height="104.875" fill="black" fill-opacity="0.03"/>
<rect x="21.875" y="629.25" width="104.875" height="104.875" fill="black" fill-opacity="0.03"/>
<rect x="-83" y="524.375" width="104.875" height="104.875" fill="black" fill-opacity="0.03"/>
<rect x="21.875" y="419.5" width="104.875" height="104.875" fill="black" fill-opacity="0.03"/>
<rect x="-83" y="314.625" width="104.875" height="104.875" fill="black" fill-opacity="0.03"/>
<rect x="21.875" y="209.75" width="104.875" height="104.875" fill="black" fill-opacity="0.03"/>
<rect x="-83" y="104.875" width="104.875" height="104.875" fill="black" fill-opacity="0.03"/>
<rect x="21.875" width="104.875" height="104.875" fill="black" fill-opacity="0.03"/>
<rect x="126.75" y="734.125" width="104.875" height="104.875" fill="black" fill-opacity="0.03"/>
<rect x="231.625" y="629.25" width="104.875" height="104.875" fill="black" fill-opacity="0.03"/>
<rect x="126.75" y="524.375" width="104.875" height="104.875" fill="black" fill-opacity="0.03"/>
<rect x="126.75" y="734.125" width="104.875" height="104.875" fill="black" fill-opacity="0.03"/>
<rect x="231.625" y="629.25" width="104.875" height="104.875" fill="black" fill-opacity="0.03"/>
<rect x="126.75" y="524.375" width="104.875" height="104.875" fill="black" fill-opacity="0.03"/>
<rect x="231.625" y="419.5" width="104.875" height="104.875" fill="black" fill-opacity="0.03"/>
<rect x="126.75" y="314.625" width="104.875" height="104.875" fill="black" fill-opacity="0.03"/>
<rect x="231.625" y="209.75" width="104.875" height="104.875" fill="black" fill-opacity="0.03"/>
<rect x="126.75" y="104.875" width="104.875" height="104.875" fill="black" fill-opacity="0.03"/>
<rect x="231.625" width="104.875" height="104.875" fill="black" fill-opacity="0.03"/>
<rect x="336.5" y="734.125" width="104.875" height="104.875" fill="black" fill-opacity="0.03"/>
<rect x="441.375" y="629.25" width="104.875" height="104.875" fill="black" fill-opacity="0.03"/>
<rect x="336.5" y="524.375" width="104.875" height="104.875" fill="black" fill-opacity="0.03"/>
<rect x="336.5" y="734.125" width="104.875" height="104.875" fill="black" fill-opacity="0.03"/>
<rect x="441.375" y="629.25" width="104.875" height="104.875" fill="black" fill-opacity="0.03"/>
<rect x="336.5" y="524.375" width="104.875" height="104.875" fill="black" fill-opacity="0.03"/>
<rect x="441.375" y="419.5" width="104.875" height="104.875" fill="black" fill-opacity="0.03"/>
<rect x="336.5" y="314.625" width="104.875" height="104.875" fill="black" fill-opacity="0.03"/>
<rect x="441.375" y="209.75" width="104.875" height="104.875" fill="black" fill-opacity="0.03"/>
<rect x="336.5" y="104.875" width="104.875" height="104.875" fill="black" fill-opacity="0.03"/>
<rect x="441.375" width="104.875" height="104.875" fill="black" fill-opacity="0.03"/>
<rect x="546.25" y="734.125" width="104.875" height="104.875" fill="black" fill-opacity="0.03"/>
<rect x="651.125" y="629.25" width="104.875" height="104.875" fill="black" fill-opacity="0.03"/>
<rect x="546.25" y="524.375" width="104.875" height="104.875" fill="black" fill-opacity="0.03"/>
<rect x="546.25" y="734.125" width="104.875" height="104.875" fill="black" fill-opacity="0.03"/>
<rect x="651.125" y="629.25" width="104.875" height="104.875" fill="black" fill-opacity="0.03"/>
<rect x="546.25" y="524.375" width="104.875" height="104.875" fill="black" fill-opacity="0.03"/>
<rect x="651.125" y="419.5" width="104.875" height="104.875" fill="black" fill-opacity="0.03"/>
<rect x="546.25" y="314.625" width="104.875" height="104.875" fill="black" fill-opacity="0.03"/>
<rect x="651.125" y="209.75" width="104.875" height="104.875" fill="black" fill-opacity="0.03"/>
<rect x="546.25" y="104.875" width="104.875" height="104.875" fill="black" fill-opacity="0.03"/>
<rect x="651.125" width="104.875" height="104.875" fill="black" fill-opacity="0.03"/>
<rect x="756" y="734.125" width="104.875" height="104.875" fill="black" fill-opacity="0.03"/>
<rect x="860.875" y="629.25" width="104.875" height="104.875" fill="black" fill-opacity="0.03"/>
<rect x="756" y="524.375" width="104.875" height="104.875" fill="black" fill-opacity="0.03"/>
<rect x="756" y="734.125" width="104.875" height="104.875" fill="black" fill-opacity="0.03"/>
<rect x="860.875" y="629.25" width="104.875" height="104.875" fill="black" fill-opacity="0.03"/>
<rect x="756" y="524.375" width="104.875" height="104.875" fill="black" fill-opacity="0.03"/>
<rect x="860.875" y="419.5" width="104.875" height="104.875" fill="black" fill-opacity="0.03"/>
<rect x="756" y="314.625" width="104.875" height="104.875" fill="black" fill-opacity="0.03"/>
<rect x="860.875" y="209.75" width="104.875" height="104.875" fill="black" fill-opacity="0.03"/>
<rect x="756" y="104.875" width="104.875" height="104.875" fill="black" fill-opacity="0.03"/>
<rect x="860.875" width="104.875" height="104.875" fill="black" fill-opacity="0.03"/>
<rect x="756" y="734.125" width="104.875" height="104.875" fill="black" fill-opacity="0.03"/>
<rect x="860.875" y="629.25" width="104.875" height="104.875" fill="black" fill-opacity="0.03"/>
<rect x="756" y="524.375" width="104.875" height="104.875" fill="black" fill-opacity="0.03"/>
<rect x="756" y="734.125" width="104.875" height="104.875" fill="black" fill-opacity="0.03"/>
<rect x="860.875" y="629.25" width="104.875" height="104.875" fill="black" fill-opacity="0.03"/>
<rect x="756" y="524.375" width="104.875" height="104.875" fill="black" fill-opacity="0.03"/>
<rect x="860.875" y="419.5" width="104.875" height="104.875" fill="black" fill-opacity="0.03"/>
<rect x="756" y="314.625" width="104.875" height="104.875" fill="black" fill-opacity="0.03"/>
<rect x="860.875" y="209.75" width="104.875" height="104.875" fill="black" fill-opacity="0.03"/>
<rect x="756" y="104.875" width="104.875" height="104.875" fill="black" fill-opacity="0.03"/>
<rect x="860.875" width="104.875" height="104.875" fill="black" fill-opacity="0.03"/>
<rect x="965.75" y="734.125" width="104.875" height="104.875" fill="black" fill-opacity="0.03"/>
<rect x="1070.62" y="629.25" width="104.875" height="104.875" fill="black" fill-opacity="0.03"/>
<rect x="965.75" y="524.375" width="104.875" height="104.875" fill="black" fill-opacity="0.03"/>
<rect x="965.75" y="734.125" width="104.875" height="104.875" fill="black" fill-opacity="0.03"/>
<rect x="1070.62" y="629.25" width="104.875" height="104.875" fill="black" fill-opacity="0.03"/>
<rect x="965.75" y="524.375" width="104.875" height="104.875" fill="black" fill-opacity="0.03"/>
<rect x="1070.62" y="419.5" width="104.875" height="104.875" fill="black" fill-opacity="0.03"/>
<rect x="965.75" y="314.625" width="104.875" height="104.875" fill="black" fill-opacity="0.03"/>
<rect x="1070.62" y="209.75" width="104.875" height="104.875" fill="black" fill-opacity="0.03"/>
<rect x="965.75" y="104.875" width="104.875" height="104.875" fill="black" fill-opacity="0.03"/>
<rect x="1070.62" width="104.875" height="104.875" fill="black" fill-opacity="0.03"/>
<rect x="1175.5" y="734.125" width="104.875" height="104.875" fill="black" fill-opacity="0.03"/>
<rect x="1280.38" y="629.25" width="104.875" height="104.875" fill="black" fill-opacity="0.03"/>
<rect x="1175.5" y="524.375" width="104.875" height="104.875" fill="black" fill-opacity="0.03"/>
<rect x="1175.5" y="734.125" width="104.875" height="104.875" fill="black" fill-opacity="0.03"/>
<rect x="1280.38" y="629.25" width="104.875" height="104.875" fill="black" fill-opacity="0.03"/>
<rect x="1175.5" y="524.375" width="104.875" height="104.875" fill="black" fill-opacity="0.03"/>
<rect x="1280.38" y="419.5" width="104.875" height="104.875" fill="black" fill-opacity="0.03"/>
<rect x="1175.5" y="314.625" width="104.875" height="104.875" fill="black" fill-opacity="0.03"/>
<rect x="1280.38" y="209.75" width="104.875" height="104.875" fill="black" fill-opacity="0.03"/>
<rect x="1175.5" y="104.875" width="104.875" height="104.875" fill="black" fill-opacity="0.03"/>
<rect x="1175.5" y="104.875" width="104.875" height="104.875" fill="black" fill-opacity="0.03"/>
<rect x="1280.38" width="104.875" height="104.875" fill="black" fill-opacity="0.03"/>
<rect x="1385.25" y="734.125" width="104.875" height="104.875" fill="black" fill-opacity="0.03"/>
<rect x="1490.12" y="629.25" width="104.875" height="104.875" fill="black" fill-opacity="0.03"/>
<rect x="1385.25" y="524.375" width="104.875" height="104.875" fill="black" fill-opacity="0.03"/>
<rect x="1490.12" y="419.5" width="104.875" height="104.875" fill="black" fill-opacity="0.03"/>
<rect x="1385.25" y="314.625" width="104.875" height="104.875" fill="black" fill-opacity="0.03"/>
<rect x="1490.12" y="209.75" width="104.875" height="104.875" fill="black" fill-opacity="0.03"/>
<rect x="1385.25" y="104.875" width="104.875" height="104.875" fill="black" fill-opacity="0.03"/>
<rect x="1490.12" width="104.875" height="104.875" fill="black" fill-opacity="0.03"/>
</svg>
